<svg xmlns="http://www.w3.org/2000/svg" width="220" height="160" viewBox="0 0 220 160" fill="none">
  <rect x="78" y="10" width="80" height="140" rx="18" fill="#0f2438" />
  <rect x="86" y="26" width="64" height="102" rx="4" fill="#f8f8fd" />
  <circle cx="118" cy="140" r="5" fill="#21ad65" />
  <rect x="94" y="34" width="48" height="10" rx="3" fill="#e8f8f0" />
  <rect x="94" y="50" width="48" height="26" rx="6" fill="#eaf2fb" stroke="#3a8ee0" stroke-width="1" />
  <path d="M100 68l6-10 6 6 8-12" stroke="#3a8ee0" stroke-width="1.6" fill="none" stroke-linecap="round" stroke-linejoin="round" />
  <rect x="94" y="82" width="48" height="16" rx="4" fill="#e8f8f0" />
  <rect x="94" y="102" width="48" height="16" rx="4" fill="#eef1f5" />
  <g fill="#21ad65">
    <circle cx="40" cy="46" r="3" /><circle cx="52" cy="60" r="3" /><circle cx="34" cy="74" r="3" />
  </g>
  <path d="M40 46l12 14-6 14" stroke="#21ad65" stroke-width="1.3" fill="none" stroke-dasharray="2 3" />
  <g fill="#3a8ee0">
    <circle cx="182" cy="52" r="3" /><circle cx="192" cy="70" r="3" />
  </g>
  <path d="M182 52l10 18" stroke="#3a8ee0" stroke-width="1.3" fill="none" stroke-dasharray="2 3" />
</svg>
